<svg width="122" height="122" viewBox="0 0 122 122" fill="none" xmlns="http://www.w3.org/2000/svg">
<path d="M61 0.0625C27.3994 0.0625 0.0625 27.4023 0.0625 61C0.0625 94.6504 27.3496 121.938 61 121.938C94.6006 121.938 121.938 94.6006 121.938 61C121.938 27.3467 94.6533 0.0625 61 0.0625ZM61 91.7617C53.6962 91.7617 46.6915 88.8603 41.5269 83.6957C36.3624 78.5311 33.4609 71.5265 33.4609 64.2227C33.4609 56.9188 36.3624 49.9142 41.5269 44.7496C46.6915 39.585 53.6962 36.6836 61 36.6836H62.2334L58.0996 32.5527C57.3304 31.7835 56.8982 30.7402 56.8982 29.6523C56.8982 28.5645 57.3304 27.5212 58.0996 26.752C58.8688 25.9827 59.9121 25.5506 61 25.5506C62.0879 25.5506 63.1312 25.9827 63.9004 26.752L75.6191 38.4707C76.0001 38.8516 76.3022 39.3037 76.5084 39.8014C76.7145 40.2991 76.8206 40.8324 76.8206 41.3711C76.8206 41.9098 76.7145 42.4431 76.5084 42.9408C76.3022 43.4384 76.0001 43.8906 75.6191 44.2715L63.9004 55.9902C63.1312 56.7595 62.0879 57.1916 61 57.1916C59.9121 57.1916 58.8688 56.7595 58.0996 55.9902C57.3304 55.221 56.8982 54.1777 56.8982 53.0898C56.8982 52.002 57.3304 50.9587 58.0996 50.1895L63.373 44.916C62.6758 44.8867 61.8789 44.8867 61 44.8867C57.1757 44.8867 53.4373 46.0207 50.2575 48.1454C47.0778 50.2701 44.5994 53.2899 43.1359 56.8231C41.6724 60.3563 41.2895 64.2441 42.0356 67.9949C42.7817 71.7457 44.6232 75.191 47.3274 77.8952C50.0316 80.5994 53.4769 82.441 57.2277 83.1871C60.9785 83.9331 64.8664 83.5502 68.3995 82.0867C71.9327 80.6232 74.9526 78.1449 77.0772 74.9651C79.2019 71.7853 80.3359 68.0469 80.3359 64.2227C80.3359 63.1349 80.7681 62.0916 81.5373 61.3224C82.3064 60.5532 83.3497 60.1211 84.4375 60.1211C85.5253 60.1211 86.5686 60.5532 87.3377 61.3224C88.1069 62.0916 88.5391 63.1349 88.5391 64.2227C88.5305 71.5239 85.6264 78.5236 80.4636 83.6863C75.3009 88.849 68.3012 91.7532 61 91.7617V91.7617Z" fill="url(#paint0_linear)"/>
<defs>
<linearGradient id="paint0_linear" x1="85.5" y1="38" x2="23.5" y2="101.5" gradientUnits="userSpaceOnUse">
<stop stop-color="#F3F3F3"/>
<stop offset="1" stop-color="white"/>
</linearGradient>
</defs>
</svg>
