<svg width="18" height="18" viewBox="0 0 18 18" fill="none" xmlns="http://www.w3.org/2000/svg">
<g opacity="0.3">
<path d="M0 5.90625V5.34375C0 4.87776 0.377754 4.5 0.84375 4.5H13.5V2.8125C13.5 2.06132 14.4105 1.68603 14.9404 2.21587L17.7529 5.02837C18.0824 5.35789 18.0824 5.89212 17.7529 6.2216L14.9404 9.0341C14.4125 9.56187 13.5 9.19181 13.5 8.4375V6.75H0.84375C0.377754 6.75 0 6.37225 0 5.90625ZM17.1562 11.25H4.5V9.5625C4.5 8.81318 3.59079 8.43469 3.05961 8.96587L0.247113 11.7784C-0.0823711 12.1079 -0.0823711 12.6421 0.247113 12.9716L3.05961 15.7841C3.58794 16.3124 4.5 15.9411 4.5 15.1875V13.5H17.1562C17.6222 13.5 18 13.1222 18 12.6563V12.0938C18 11.6278 17.6222 11.25 17.1562 11.25Z" fill="#030A2A"/>
</g>
</svg>
